Complete name                    : Denikaina Ready (2012)
Format                           : MPEG-PS
File size                        : 1 .4 GB
Overall bit rate                 : 1 494 Kbps

Video
ID                               : 224 (0xE0)
Format                           : MPEG Video
Format version                   : Version 2
Format profile                   : Main@Main
Format settings, BVOP            : Yes
Format settings, Matrix          : Default
Bit rate mode                    : Variable
Bit rate                         : 1 272 Kbps
Nominal bit rate                 : 9 608 Kbps
Width                            : 720 pixels
Height                           : 480 pixels
Display aspect ratio             : 16:9
Frame rate                       : 29.970 fps
Standard                         : NTSC
Color space                      : YUV
Chroma subsampling               : 4:2:0
Bit depth                        : 8 bits
Scan type                        : Progressive
Compression mode                 : Lossy
Bits/(Pixel*Frame)               : 0.123
Stream size                      : 872 MiB (85%)

Audio
ID                               : 128 (0x80)
Format                           : AC-3
Format/Info                      : Audio Coding 3
Mode extension                   : CM (complete main)
Duration                         : 1h 35mn
Bit rate mode                    : Constant
Bit rate                         : 192 Kbps
Channel(s)                       : 2 channels
Channel positions                : Front: L R
Sampling rate                    : 48.0 KHz
Bit depth                        : 16 bits
Compression mode                 : Lossy
Stream size                      : 132 MiB (13%)


SCREEN SHOTS 


 
http://i.imgur.com/Jg60W.png
 
http://i.imgur.com/ondiD.png
 
http://i.imgur.com/k7Heh.png
 
http://i.imgur.com/gzlky.png
 
http://i.imgur.com/R9cog.png

